<svg width="23" height="23" viewBox="0 0 23 23" fill="none" xmlns="http://www.w3.org/2000/svg">
<path d="M10.5 16C10.5 16.5523 10.9477 17 11.5 17C12.0523 17 12.5 16.5523 12.5 16H10.5ZM12.5 11C12.5 10.4477 12.0523 10 11.5 10C10.9477 10 10.5 10.4477 10.5 11H12.5ZM11.5 23C17.8513 23 23 17.8513 23 11.5H21C21 16.7467 16.7467 21 11.5 21V23ZM23 11.5C23 5.14872 17.8513 0 11.5 0V2C16.7467 2 21 6.25329 21 11.5H23ZM11.5 0C5.14873 0 0 5.14873 0 11.5H2C2 6.25329 6.25329 2 11.5 2V0ZM0 11.5C0 17.8513 5.14872 23 11.5 23V21C6.25329 21 2 16.7467 2 11.5H0ZM11 7.5C11 7.22386 11.2239 7 11.5 7V9C12.3284 9 13 8.32843 13 7.5H11ZM11.5 7C11.7761 7 12 7.22386 12 7.5H10C10 8.32843 10.6716 9 11.5 9V7ZM12 7.5C12 7.77614 11.7761 8 11.5 8V6C10.6716 6 10 6.67157 10 7.5H12ZM11.5 8C11.2239 8 11 7.77614 11 7.5H13C13 6.67157 12.3284 6 11.5 6V8ZM12.5 16V11H10.5V16H12.5ZM9 17.75H14V15.75H9V17.75Z" fill="#212758"/>
</svg>
